{
  "title": "Sherlock Holmes A Game of Shadows (2011) DVDRip XviD-MAX",
  "uid": 7187574,
  "size": 1417436668,
  "categoryP": "video",
  "categoryS": "movies",
  "magnet": "?xt=urn:btih:5be429483b294e59ae7a643cdd41154c884879bc&amp;dn=Sherlock+Holmes+A+Game+of+Shadows+%282011%29+DVDRip+XviD-MAX&amp;tr=udp%3A%2F%2Ftracker.openbittorrent.com%3A80&amp;tr=udp%3A%2F%2Fopen.demonii.com%3A1337&amp;tr=udp%3A%2F%2Ftracker.coppersurfer.tk%3A6969&amp;tr=udp%3A%2F%2Fexodus.desync.com%3A6969",
  "seeders": 110,
  "leechers": 15,
  "uploader": "extremezone",
  "files": -1,
  "time": 1334500263,
  "description": "Screens:\n &lt;a href=&quot;\nhttp://www.postimg.com/image/68000/photo-67294.jpg&quot; rel=&quot;nofollow&quot; target=&quot;_NEW&quot;&gt;\nhttp://www.postimg.com/image/68000/photo-67294.jpg&lt;/a&gt; &lt;a href=&quot;\nhttp://www.postimg.com/image/68000/photo-67295.jpg&quot; rel=&quot;nofollow&quot; target=&quot;_NEW&quot;&gt;\nhttp://www.postimg.com/image/68000/photo-67295.jpg&lt;/a&gt; &lt;a href=&quot;\nhttp://www.postimg.com/image/68000/photo-67296.jpg&quot; rel=&quot;nofollow&quot; target=&quot;_NEW&quot;&gt;\nhttp://www.postimg.com/image/68000/photo-67296.jpg&lt;/a&gt; &lt;a href=&quot;\nhttp://www.postimg.com/image/68000/photo-67297.jpg&quot; rel=&quot;nofollow&quot; target=&quot;_NEW&quot;&gt;\nhttp://www.postimg.com/image/68000/photo-67297.jpg&lt;/a&gt;\n\nScreenCaps:\n &lt;a href=&quot;\nhttp://www.postimg.com/image/68000/photo-67300.jpg&quot; rel=&quot;nofollow&quot; target=&quot;_NEW&quot;&gt;\nhttp://www.postimg.com/image/68000/photo-67300.jpg&lt;/a&gt;\n\nSherlock Holmes A Game of Shadows (2011) DVDRip XviD-MAX\nFormat                           : AVI\nFormat/Info                      : Audio Video Interleave\nFormat profile                   : OpenDML\nFile size                        : 1.31 GiB\nDuration                         : 2h 8mn\nOverall bit rate                 : 1 456 Kbps\nWriting application              : VirtualDubMod 1.5.10.2 (build 2542/release)\nWriting library                  : VirtualDubMod build 2542/release\nOriginal source form             : MAX TORRENTZ\nCopyright                        : SIGISMUNT\n\nVideo\nID                               : 0\nFormat                           : MPEG-4 Visual\nFormat profile                   : AdvancedSimple@L5\nFormat settings, BVOP            : Yes\nFormat settings, QPel            : No\nFormat settings, GMC             : No warppoints\nFormat settings, Matrix          : Default (MPEG)\nCodec ID                         : XVID\nCodec ID/Hint                    : XviD\nDuration                         : 2h 8mn\nBit rate                         : 1 131 Kbps\nWidth                            : 640 pixels\nHeight                           : 272 pixels\nDisplay aspect ratio             : 2.35:1\nFrame rate                       : 23.976 fps\nResolution                       : 24 bits\nColorimetry                      : 4:2:0\nScan type                        : Progressive\nBits/(Pixel*Frame)               : 0.271\nStream size                      : 1.02 GiB (78%)\nWriting library                  : XviD 1.2.1 (UTC 2008-12-04)\n\nAudio\nID                               : 1\nFormat                           : AC-3\nFormat/Info                      : Audio Coding 3\nCodec ID                         : 2000\nDuration                         : 2h 8mn\nBit rate mode                    : Constant\nBit rate                         : 320 Kbps\nChannel(s)                       : 6 channels\nChannel positions                : Front: L C R, Surround: L R, LFE\nSampling rate                    : 48.0 KHz\nStream size                      : 295 MiB (22%)\nAlignment                        : Aligned on interleaves\nInterleave, duration             : 64 ms (1.53 video frames)\nInterleave, preload duration     : 192 ms\n\nSource: DVD (perfect a/v/sync quality,sample included)\nThis torrent is not seedbox supported,please seed it to the MAX\n\nNote: We need anything you can offer as early releases,seedboxes,links,accounts,etc\nplease contact us on piratepedia[@]msn/gmail.com or our website torentz 3xforum ro\n\nSherlock Holmes A Game of Shadows (2011) DVDRip XviD-MAX Torrent Free Download\n &lt;a href=&quot;\nhttp://thepiratebay.se/user/extremezone/0/7&quot; rel=&quot;nofollow&quot; target=&quot;_NEW&quot;&gt;\nhttp://thepiratebay.se/user/extremezone/0/7&lt;/a&gt;",
  "parsed": {
    "xt": "urn:btih:5be429483b294e59ae7a643cdd41154c884879bc",
    "dn": "Sherlock Holmes A Game of Shadows (2011) DVDRip XviD-MAX",
    "tr": [
      "udp://exodus.desync.com:6969",
      "udp://open.demonii.com:1337",
      "udp://tracker.coppersurfer.tk:6969",
      "udp://tracker.openbittorrent.com:80"
    ],
    "infoHash": "5be429483b294e59ae7a643cdd41154c884879bc",
    "infoHashBuffer": {
      "type": "Buffer",
      "data": [
        91,
        228,
        41,
        72,
        59,
        41,
        78,
        89,
        174,
        122,
        100,
        60,
        221,
        65,
        21,
        76,
        136,
        72,
        121,
        188
      ]
    },
    "name": "Sherlock Holmes A Game of Shadows (2011) DVDRip XviD-MAX",
    "announce": [
      "udp://exodus.desync.com:6969",
      "udp://open.demonii.com:1337",
      "udp://tracker.coppersurfer.tk:6969",
      "udp://tracker.openbittorrent.com:80"
    ],
    "urlList": []
  },
  "previous": 125,
  "peers": 144,
  "last_updated": "2016-12-25T02:09:51.120Z"
}